<?xml version="1.0" standalone="no"?>
<!DOCTYPE svg PUBLIC "-//W3C//DTD SVG 1.1//EN" "http://www.w3.org/Graphics/SVG/1.1/DTD/svg11.dtd" >
<svg xmlns="http://www.w3.org/2000/svg">
<metadata>Generated by IcoMoon</metadata>
<defs>
<font id="icomoon" horiz-adv-x="1024">
<font-face units-per-em="1024" ascent="960" descent="-64" />
<missing-glyph horiz-adv-x="1024" />
<glyph unicode="&#x20;" horiz-adv-x="512" d="" />
<glyph unicode="&#xe900;" glyph-name="alarmset" d="M444.056 212.082h111.445v-111.445h-111.445v111.445zM444.056 510.445h111.445v-260.684h-111.445v260.684zM1012.205 103.822c-15.038 26.036-5.935 59.601 20.328 74.809l15.929 9.216-56.187 97.375-16.024-9.406c-8.249-4.855-17.73-7.452-27.345-7.452-30.113 0-54.632 24.747-54.632 55.068v18.451h-112.526l0.171-18.565c0.095-9.633-2.427-19.115-7.301-27.515-9.652-16.744-27.8-27.193-47.332-27.193-9.614 0-19.172 2.56-27.61 7.452l-15.948 9.14-56.244-97.413 16.194-9.14c8.306-4.703 15.246-11.586 20.063-19.968 15-25.998 5.935-59.563-20.177-74.733l-15.872-9.254 56.187-97.261 15.986 9.33c8.23 4.779 17.636 7.301 27.269 7.301 29.924 0 54.443-24.557 54.594-54.746l0.095-18.337h112.356l-0.076 18.489c-0.038 9.481 2.465 18.887 7.282 27.193 9.69 16.82 27.838 27.231 47.351 27.231 9.595 0 19.077-2.56 27.458-7.339l15.91-9.102 56.187 97.261-16.081 9.178c-8.268 4.703-15.189 11.586-20.006 19.93zM838.068 72.116c-32.73 0-59.335 26.624-59.335 59.335 0 32.749 26.605 59.373 59.335 59.373 32.768 0 59.392-26.624 59.392-59.373 0-32.711-26.662-59.335-59.392-59.335zM515.622 749.758l200.211-446.824 48.375 116.546-248.585 530.622-514.010-990.094h566.044l49.399 100.219h-441.837z" />
<glyph unicode="&#xe901;" glyph-name="colse" d="M1014.651-49.645c19.418 19.38 19.475 50.859 0.095 70.277-0.038 0.038-0.057 0.076-0.095 0.095l-427.748 427.577 427.748 427.52c18.868 19.987 17.958 51.503-2.029 70.372-19.191 18.091-49.152 18.11-68.343 0.038l-427.767-427.558-427.804 427.558c-20.347 18.546-51.883 17.086-70.447-3.243-17.37-19.039-17.351-48.166 0.019-67.167l427.785-427.52-427.785-427.577c-18.432-20.442-16.763-51.94 3.698-70.372 18.963-17.029 47.768-17.029 66.731 0l427.785 427.596 427.767-427.596c19.361-19.399 50.84-19.437 70.258-0.114 0.038 0.038 0.076 0.095 0.133 0.114z" />
<glyph unicode="&#xe902;" glyph-name="correctness" d="M901.559 820.261c-127.707 5.614-249.984 49.262-363.538 129.829l-26.075 18.395-25.984-18.469c-113.463-80.494-235.758-124.142-362.313-129.719h-47.854v-352c0-255.945 174.885-475.099 427.026-533.321l11.154-1.865 9.033 2.213c250.35 57.819 425.198 276.974 425.198 532.955v352.018l-46.647-0.037zM839.314 728.265v-285.824c-26.423-304.549-278.089-386.158-327.442-399.287-36.059 9.070-300.233 86.107-327.515 400.384v284.69c123.502 13.202 231.058 50.231 327.662 112.805 96.494-62.501 203.977-99.547 327.296-112.768zM738.395 640.805c-21.138 0-40.485-11.52-50.67-29.787l-216.283-229.76-133.157 139.776c-10.569 16.896-29.038 27.227-49.17 27.227-32 0-58.021-26.021-58.021-57.929-0.055-19.712 9.874-37.943 26.203-48.64l162.981-168.795c11.538-17.463 30.939-28.032 52.242-28.032 21.815 0 41.637 11.099 53.065 29.33l245.541 260.681c15.707 10.715 25.307 28.672 25.307 47.909 0 32-26.039 58.021-58.039 58.021z" />
<glyph unicode="&#xe903;" glyph-name="detailed_info" d="M518.561 948.186c-277.769 0-502.955-225.185-502.955-502.993 0-277.713 225.185-502.974 502.955-502.974 277.788 0 502.974 225.261 502.974 502.974 0 277.807-225.185 502.993-502.974 502.993zM518.561 14.071c-246.594 0-431.54 193.176-431.54 431.123 0 238.023 193.593 431.521 431.54 431.521s431.521-193.517 431.521-431.521c0-237.947-199.604-431.332-431.521-431.332v0.209zM585.747 239.028c-13.995 0-23.874 2.238-29.544 6.732-5.689 4.456-8.533 12.838-8.533 25.183 0 4.911 0.891 12.136 2.655 21.751 1.745 9.538 3.717 18.053 5.916 25.524l27.041 92.881c2.655 8.514 4.437 17.844 5.423 28.084 0.986 10.221 1.479 17.332 1.479 21.409 0 19.57-7.073 35.48-21.22 47.749-14.146 12.25-34.266 18.356-60.359 18.356-14.469 0-29.81-2.541-46.042-7.509-16.213-4.987-33.223-11.017-50.972-18.034l-7.244-28.748c5.253 1.934 11.586 3.906 18.944 6.068 7.358 2.105 14.545 3.167 21.58 3.167 14.279 0 23.95-2.332 28.994-7.016s7.547-12.99 7.547-24.898c0-6.599-0.796-13.9-2.446-21.864s-3.679-16.441-6.106-25.353l-27.117-93.26c-2.408-9.766-4.153-18.603-5.253-26.302-1.1-7.794-1.631-15.417-1.631-22.85 0-19.209 7.282-34.987 21.826-47.407 14.583-12.478 35.006-18.66 61.269-18.66 17.105 0 32.085 2.181 45.037 6.542 12.914 4.343 30.208 10.676 51.902 19.020l7.206 28.71c-3.698-1.726-9.728-3.641-18.053-5.916-8.325-2.219-15.758-3.356-22.3-3.356zM614.116 679.652c-12.61 11.473-27.781 17.237-45.492 17.237-17.768 0-32.996-5.765-45.701-17.237-12.686-11.454-19.039-25.353-19.039-41.51 0-16.194 6.353-29.961 19.039-41.32 12.705-11.435 27.951-17.124 45.701-17.124 17.73 0 32.882 5.689 45.492 17.124 12.572 11.359 18.868 25.126 18.868 41.32 0 16.156-6.296 30.037-18.868 41.51z" />
<glyph unicode="&#xe904;" glyph-name="edit" d="M920.804 39.614h-817.626v816.792h365.947v104.315h-469.826v-1025.422h1025.403v464.137h-103.898zM900.987 685.397l-130.408 129.517-375.827-377.022 130.427-129.46zM205.559 118.481l214.756 67.717-146.754 145.92z" />
<glyph unicode="&#xe905;" glyph-name="empty" d="M115.598 557.625v-501.191c0-69.177 56.073-125.288 125.307-125.288h563.788c69.215 0 125.326 56.111 125.326 125.288v501.191h-125.326v-501.191h-563.807v501.191h-125.288zM84.271 651.586h877.113c34.532 0 62.616 28.065 62.616 62.673 0 34.626-28.046 62.635-62.616 62.635h-219.307v125.307c0 34.626-28.046 62.654-62.654 62.654h-313.23c-34.588 0-62.635-28.027-62.635-62.654v-125.307h-219.288c-34.607 0-62.616-28.008-62.616-62.635-0.019-34.551 27.989-62.673 62.616-62.673zM397.521 870.893h250.558v-93.999h-250.558v93.999z" />
<glyph unicode="&#xe906;" glyph-name="field" d="M1021.897 446.811c0 280.521-227.566 507.922-508.288 507.922-280.741 0-508.306-227.419-508.306-507.922 0-259.127 194.194-472.905 445.074-504.027 14.135-2.962 31.378-4.718 51.895-4.718 5.76 0 11.319 0.329 16.677 0.859 278.272 2.834 502.967 229.12 502.949 507.886v0zM949.23 439.625c-1.463 25.344-4.809 50.139-9.911 74.258 0.457 8.613 0.567 16.768 0.347 24.338 6.309-29.458 9.618-60.050 9.618-91.41 0.018-2.395-0.018-4.791-0.055-7.186v0zM77.915 446.811c0 30.793 3.2 60.818 9.289 89.801 18.816-20.133 63.159-19.639 73.984 10.423 19.346-11.538 45.349-13.641 45.349-36.699 0-76.069 2.706-157.641 71.845-158.885 1.938-0.018 38.546-13.879 55.973-59.045 6.034-15.616 29.842 0 55.991 0 13.038 0 0-21.979 0-69.504 0-47.323 102.053-120.192 102.053-120.192-0.475-31.342 0.805-56.686 3.419-76.91-23.040 0.402-42.441-2.651-57.691-7.826-204.654 35.73-360.21 214.107-360.21 428.837v0zM620.873 24.741c-2.267 11.063-12.16 17.134-30.171 12.379 14.391 61.275 21.376 95.579 51.419 121.637 43.447 37.669 5.175 79.561-27.886 74.606-26.057-3.931-9.6 32.274-32.859 34.267-23.259 1.938-53.632 48.219-87.113 64.146-17.755 8.43-35.182 30.994-62.555 32.018-24.265 0.951-59.703-20.517-59.703-3.986 0 53.266-5.394 91.264-6.491 106.441-0.896 12.197-7.973 4.114 24.814 3.328 17.847-0.475 9.125 35.84 26.789 37.266 17.353 1.371 58.697-16.256 69.23-9.216 9.783 6.528 71.936-163.127 71.936-28.050 0 16.018-8.302 43.886 0 59.063 32.823 59.977 63.561 108.855 60.8 116.023-1.554 4.023-33.573 7.351-59.191-1.243-8.649-2.889 2.743-16.421-9.673-19.328-46.519-10.734-87.625 12.544-73.234 34.432 14.738 22.455 68.151 9.783 72.832 54.784 2.688 25.783 4.937 55.625 6.418 77.824 62.61-9.783 55.717 81.262-37.376 91.008 188.343-2.194 347.959-123.831 406.528-292.663-2.962 2.688-6.418 4.334-10.386 4.754-28.16 70.309-96.475 19.419-73.307-42.606-124.197-95.47-92.398-162.030-51.602-200.155 21.467-20.059 41.929-50.176 55.259-71.845-14.501-42.295 53.449-25.362 86.967 46.427-42.642-147.858-161.573-263.387-311.442-301.312v0z" />
<glyph unicode="&#xe907;" glyph-name="insert" d="M980.385 1.327h-24.5v-48.962h73.481v73.481h-48.981zM824.396 1.327h87.078v-48.962h-87.078v48.962zM536.386 1.327h87.097v-48.962h-87.097v48.962zM462.791 25.847h-49v-73.481h73.5v48.962h-24.5zM413.791 344.329h48.981v-79.625h-48.981v79.625zM413.791 185.079h48.981v-79.55h-48.981v79.55zM413.791 423.955h49v24.5h24.5v49h-73.5zM536.329 497.455h87.078v-49h-87.078v49zM688.090 1.327h87.097v-48.962h-87.097v48.962zM688.033 497.455h87.078v-49h-87.078v49zM824.32 497.455h87.097v-49h-87.097v49zM955.885 497.455v-49h24.5v-24.5h48.981v73.5zM980.385 344.329h48.981v-79.625h-48.981v79.625zM980.385 185.079h48.981v-79.55h-48.981v79.55zM394.487 734.91v220.35h-169.396v-220.35h-220.35v-169.415h220.35v-220.35h169.396v220.35h220.369v169.415z" />
<glyph unicode="&#xe908;" glyph-name="reset" d="M335.834-3.072v127.109h309.058c171.444 0 258.37 60.966 258.37 181.248 0 138.752-110.232 251.657-245.684 251.657l-405.049 1.005v-214.585l-252.738 277.656 252.738 278.054v-214.225l404.935-1.195c202.164 0 366.535-169.756 366.535-378.368 0-227.612-204.231-308.357-379.089-308.357h-309.077z" />
<glyph unicode="&#xe909;" glyph-name="sample" d="M597.339 35.785h-484.261c-7.918 0-14.373 6.455-14.373 14.373v794.039c0 7.918 6.455 14.373 14.373 14.373h494.939v-118.839c0-61.221 49.81-111.013 111.013-111.013h118.839v-246.235h96.658v328.686l-231.973 232.942c-1.865 1.865-3.73 3.31-5.486 4.462l-6.766 6.619h-577.225c-61.221 0-111.013-49.792-111.013-111.013v-794.021c0-61.221 49.792-110.994 111.013-110.994h484.261v96.622zM704.677 804.645l78.592-79.287h-64.238c-7.918 0-14.354 6.437-14.354 14.354v64.933zM659.218-60.8c-5.778 0-11.557 1.81-16.402 5.303-8.631 6.272-12.946 16.896-11.136 27.429l22.053 128.731-93.495 91.173c-7.662 7.442-10.405 18.578-7.095 28.709 3.273 10.112 12.014 17.499 22.565 19.035l129.262 18.743 57.801 117.175c4.718 9.527 14.464 15.598 25.106 15.598v0c10.606 0 20.37-6.053 25.106-15.616l57.765-117.175 129.317-18.743c10.496-1.518 19.273-8.923 22.546-19.054 3.31-10.13 0.549-21.23-7.113-28.69l-93.531-91.173 22.107-128.75c1.829-10.496-2.523-21.138-11.136-27.392s-20.005-7.113-29.44-2.103l-115.621 60.8-115.639-60.8c-4.133-2.213-8.558-3.2-13.019-3.2zM639.854 192.347l63.415-61.879c6.601-6.455 9.618-15.671 8.082-24.759l-15.013-87.406 78.482 41.289c8.174 4.297 17.902 4.297 26.039 0l78.464-41.253-14.976 87.314c-1.518 9.070 1.481 18.322 8.101 24.777l63.47 61.897-87.735 12.709c-9.143 1.335-17.006 7.077-21.102 15.305l-39.205 79.579-39.259-79.543c-4.096-8.21-11.922-13.97-21.065-15.305l-87.698-12.727z" />
<glyph unicode="&#xe90a;" glyph-name="stateye" d="M33.204 609.887l439.448-250.69c8.192-4.665 17.484-7.13 26.889-7.149 8.742 0 17.408 2.105 25.24 6.106l443.828 252.511c17.313 9.842 27.876 28.369 27.553 47.521 0.284 20.025-10.297 38.552-27.515 48.28l-443.24 252.207c-16.289 8.647-36.655 8.457-52.774-0.702l-439.486-250.69c-17.427-9.975-27.876-28.539-27.458-48.678-0.398-20.196 10.069-38.779 27.515-48.716zM168.808 658.584l330.942 188.776 331.7-188.776-331.7-188.776-330.942 188.776zM33.204 410.567l439.543-250.747c8.192-4.627 17.465-7.073 26.852-7.073 8.932 0 17.787 2.2 25.391 6.182l443.657 252.416c12.724 7.244 21.864 19.001 25.733 33.109 3.868 14.127 1.991 28.9-5.234 41.567-9.709 17.086-27.951 27.686-47.597 27.686-9.463 0-18.849-2.484-27.098-7.187l-414.701-236.051-412.331 235.236c-8.268 4.703-17.617 7.168-27.079 7.168-19.646 0-37.888-10.6-47.597-27.648-7.225-12.705-9.083-27.458-5.215-41.567 3.868-14.127 13.009-25.884 25.676-33.090zM941.568 299.198c-9.481 0-18.849-2.484-27.117-7.187l-414.701-236.032-412.312 235.198c-8.249 4.703-17.636 7.187-27.098 7.187-19.646 0-37.869-10.6-47.578-27.648-14.943-26.207-5.765-59.695 20.442-74.676l439.372-250.615c8.211-4.722 17.541-7.206 26.984-7.206 8.856 0 17.636 2.162 25.202 6.106l443.809 252.511c12.743 7.206 21.883 18.925 25.771 33.033 3.887 14.127 2.010 28.919-5.196 41.605-9.69 17.124-27.932 27.724-47.578 27.724z" />
<glyph unicode="&#xe90b;" glyph-name="tactics" d="M3.849 751.54h128.36v-815.54h-128.36v815.54zM186.823 960l0.398-1024h836.779v1024h-837.177zM577.422 220.52h323.565v-44.089h-323.565v44.089zM577.422 293.585v77.236h323.565v-77.217h-323.565zM577.422 443.866v79.436h323.565v-79.436h-323.565zM577.422 596.347v68.456h323.565v-68.456h-323.565zM901.006 737.849h-323.584v74.543h323.565v-74.543zM318.047 812.392h173.815v-216.045h-173.815v216.045zM318.047 523.321h173.815v-229.717h-173.815v229.717zM318.047 220.52h173.815v-187.487h-173.815v187.487zM577.422 33.033v70.353h323.565v-70.353h-323.565z" />
<glyph unicode="&#xe90c;" glyph-name="Person" d="M708.077 11.681h-142.526v142.298l214.13 216.083c-27.155 22.604-57.23 41.984-89.79 57.192-51.143-33.052-112.545-52.357-178.498-52.357-65.783 0-126.9 19.115-177.967 52.034-138.297-64.891-233.737-202.714-233.737-362.268 0-168.732 824.623-166.4 824.623 0 0 49.019-9.083 95.972-25.581 139.397l-190.654-192.379zM315.392 498.897c25.638-25.012 56.377-45.037 89.922-58.577 33.508-13.521 69.765-20.556 106.060-20.556s72.533 7.035 106.079 20.556c33.527 13.54 64.284 33.583 89.903 58.577 25.657 24.955 46.194 54.936 60.113 87.628 13.824 32.673 21.049 67.982 21.049 103.348s-7.225 70.713-21.049 103.386c-13.919 32.635-34.456 62.597-60.113 87.609-25.638 25.012-56.396 45.037-89.903 58.539-33.545 13.54-69.784 20.594-106.079 20.594s-72.552-7.054-106.060-20.594c-33.545-13.502-64.284-33.527-89.922-58.539-25.676-25.012-46.232-54.974-60.113-87.609-13.862-32.673-21.106-68.020-21.106-103.386 0-35.347 7.225-70.675 21.106-103.348 13.9-32.692 34.437-62.673 60.113-87.628zM1016.984 376.642c9.349 9.33 9.349 23.343 0 32.711l-53.722 53.722c-9.349 9.349-23.362 9.349-32.73 0l-42.041-42.060 88.766-88.766 39.727 44.392zM603.496 138.354v-88.766h88.785l256.986 259.3-88.785 88.785-256.986-259.319z" />
<glyph unicode="&#xe90d;" glyph-name="clearp" d="M304.83 498.916c25.638-25.012 56.396-45.037 89.922-58.596 33.508-13.502 69.784-20.518 106.060-20.518s72.533 6.997 106.060 20.518c33.545 13.559 64.303 33.583 89.922 58.596 25.657 24.974 46.194 54.936 60.094 87.609 13.843 32.673 21.068 68.001 21.068 103.348 0 35.385-7.225 70.713-21.068 103.386-13.9 32.635-34.437 62.597-60.094 87.609-25.638 25.012-56.396 45.037-89.922 58.558-33.527 13.54-69.784 20.575-106.060 20.575s-72.571-7.035-106.060-20.575c-33.527-13.521-64.284-33.545-89.922-58.558-25.676-25.012-46.213-54.974-60.113-87.609-13.862-32.673-21.087-68.001-21.087-103.386 0-35.347 7.225-70.694 21.087-103.348 13.9-32.654 34.437-62.635 60.113-87.609zM521.007 162.532c0 122.975 96.142 223.592 217.012 230.969-18.565 12.705-38.116 24.121-58.747 33.754-51.105-33.071-112.488-52.338-178.46-52.338-65.783 0-126.919 19.115-177.948 52.034-138.316-64.872-233.719-202.695-233.719-362.249 0-107.122 332.288-145.275 575.014-116.3-83.93 34.778-143.151 117.608-143.151 214.13zM766.369 356.295c-106.705 0-193.214-86.737-193.214-193.764 0-106.989 86.528-193.745 193.214-193.745s193.214 86.756 193.214 193.745c0.019 107.027-86.509 193.764-193.214 193.764v0zM865.925 145.806h-198.466v34.095h198.466v-34.095z" />
<glyph unicode="&#xe90e;" glyph-name="domain_user" d="M711.642 217.998c-87.761-87.893-184.358-184.529-184.358-184.529-8.818-8.875-23.343-8.875-32.161 0 0 0-96.578 96.654-184.358 184.529-151.059-24.424-255.109-75.681-255.109-134.978 0-83.020 203.928-150.281 455.547-150.281 251.601 0 455.528 67.262 455.528 150.281 0.019 59.24-104.031 110.554-255.090 134.978zM499.219 169.624c6.542-6.561 17.313-6.561 23.931 0 0 0 240.128 240.318 240.697 241.304 49.911 58.178 79.986 133.746 79.986 216.386 0 183.77-148.935 332.686-332.686 332.686s-332.686-148.935-332.686-332.686c0-82.622 30.17-158.189 79.986-216.386 0.702-0.986 240.773-241.304 240.773-241.304zM511.223 779.15c79 0 142.962-64 142.962-142.943s-64.038-142.981-142.962-142.981c-78.962 0-142.962 64.038-142.962 142.981-0.057 78.943 63.943 142.943 142.962 142.943z" />
<glyph unicode="&#xe90f;" glyph-name="backup" d="M639.374 703.241h-575.431c-35.309 0-63.943-28.615-63.943-63.943v-639.374c0-35.309 28.615-63.943 63.943-63.943h575.431c35.309 0 63.943 28.634 63.943 63.943v639.393c0 35.309-28.634 63.924-63.943 63.924zM575.45 63.867h-447.583v511.507h447.583v-511.507zM960.057 960h-575.431c-35.309 0-63.943-28.615-63.943-63.943v-127.886h127.886v63.943h447.564v-511.507h-95.915v-127.886h159.839c35.309 0 63.943 28.634 63.943 63.943v639.393c0 35.328-28.634 63.943-63.943 63.943z" />
<glyph unicode="&#xe910;" glyph-name="preview" d="M957.649 73.614c26.188-26.396 26.188-68.968 0-95.327-12.535-12.629-29.62-19.74-47.407-19.74s-34.873 7.111-47.407 19.74l-194.2 194.769c-46.801-29.355-100.921-44.885-156.16-44.809-163.442 0-295.784 132.836-295.784 296.884 0 164.087 132.343 296.922 295.784 296.922s295.784-132.836 295.784-296.922c0-57.496-16.403-111.313-44.62-156.767l194.010-194.75zM723.74 425.131c0 117.077-94.625 212.063-211.266 212.063-116.603 0-211.285-94.985-211.285-212.063 0-117.039 94.663-212.063 211.285-212.063 116.622 0.019 211.266 95.042 211.266 212.063v0zM612.466 26.491v-101.66h-567.732c-32.218 0-58.349 26.377-58.349 58.823v908.023c0 32.521 26.359 58.861 58.728 58.861h906.543c32.427 0 58.728-26.434 58.728-58.292v-538.567h-99.688v498.726h-825.192v-826.766l526.962 0.853z" />
<glyph unicode="&#xe911;" glyph-name="filter" d="M0-61.914h1024l-356.409 673.678v239.502h68.873v106.648h-448.91v-106.667h68.855v-239.483l-356.409-673.678zM625.455 466.204h-227.688l63.223 118.632v266.43h102.021v-266.373l62.445-118.689zM175.161 44.753l166.097 314.785h340.518l166.722-314.785h-673.337z" />
<glyph unicode="&#xe912;" glyph-name="user_photo" d="M983.761 647.301c-25.771 60.947-62.711 115.712-109.72 162.759-47.009 47.028-101.774 83.93-162.759 109.72-63.109 26.7-130.162 40.22-199.282 40.22s-136.173-13.521-199.301-40.239c-60.966-25.771-115.731-62.692-162.759-109.72-47.047-47.028-83.968-101.793-109.701-162.74-26.7-63.033-40.239-130.086-40.239-199.301 0-69.196 13.54-136.287 40.258-199.282 25.752-60.985 62.654-115.75 109.701-162.759 47.028-47.047 101.793-83.987 162.759-109.72 63.090-26.7 130.143-40.239 199.282-40.239s136.211 13.54 199.282 40.239c60.966 25.752 115.731 62.673 162.759 109.72 47.009 47.028 83.93 101.793 109.72 162.74 26.7 63.090 40.239 130.162 40.239 199.301s-13.54 136.192-40.239 199.301zM339.665 40.107c-41.87 17.692-80.649 41.7-115.352 71.452 16.896 59.961 52.945 114.157 102.021 153.145 53.286 42.287 117.513 64.664 185.761 64.664 68.153 0 132.286-22.338 185.534-64.531 49.152-39.007 85.276-93.222 102.172-153.202-34.588-29.696-73.444-53.76-115.522-71.528-109.037-46.213-235.387-46.232-344.614 0zM681.813 567.998c0-93.127-75.776-168.884-168.922-168.884-93.127 0-168.884 75.757-168.884 168.884s75.757 168.884 168.884 168.884c93.146-0.019 168.922-75.776 168.922-168.884zM713.993 440.415c24.292 38.116 37.129 82.223 37.129 127.583 0 131.337-106.875 238.213-238.232 238.213-131.337 0-238.194-106.856-238.194-238.213 0-45.189 12.781-89.202 36.94-127.26 16.934-26.643 39.083-49.816 64.74-67.812-33.451-13.293-64.74-31.384-93.165-53.95-49.683-39.462-89.448-93.032-113.209-152.121-27.155 32.939-49.304 69.518-65.953 108.885-23.059 54.537-34.778 112.507-34.778 172.26 0 59.733 11.7 117.722 34.778 172.297 22.281 52.679 54.196 100.011 94.91 140.724s88.045 72.647 140.686 94.91c54.613 23.078 112.602 34.778 172.354 34.778 59.733 0 117.703-11.7 172.26-34.759 52.755-22.319 100.124-54.253 140.781-94.91s72.552-88.007 94.872-140.724c23.059-54.481 34.778-112.45 34.778-172.297 0-59.866-11.719-117.836-34.816-172.279-16.536-39.253-38.647-75.795-65.858-108.772-23.761 59.127-63.564 112.697-113.342 152.197-28.046 22.263-58.956 40.164-91.876 53.324 25.903 18.034 48.223 41.244 65.195 67.925z" />
<glyph unicode="&#xe913;" glyph-name="inspection" d="M971.302-10.733l-101.945 108.373-26.946-12.648c-22.812-10.733-47.104-16.175-72.135-16.175-98.645 0-178.916 85.049-178.916 189.592s80.27 189.592 178.916 189.592c98.683 0 178.953-85.049 178.953-189.592 0-27.591-5.841-55.372-16.953-80.289l-11.055-24.917 102.779-109.284v-4.21c0-39.917-31.422-50.46-48.033-50.46h-4.665zM770.276 386.825c-66.238 0-120.149-57.609-120.149-128.417 0-70.846 53.912-128.493 120.149-128.493s120.149 57.647 120.149 128.493c0 70.808-53.912 128.417-120.149 128.417zM0 223.365l450.010-228.58v511.393l-450.010 204.553zM464.1 957.838l-461.198-213.352 461.672-211.646 466.413 212.177zM483.063 506.178v-511.393l107.141 50.404c-58.785 52.793-95.991 129.157-95.991 214.376 0 159.289 129.138 288.408 288.389 288.408 54.556 0 105.396-15.417 148.897-41.756v204.516l-448.436-204.553z" />
<glyph unicode="&#xe914;" glyph-name="copy" d="M187.468 192.152h-191.716v766.824h766.824v-191.716h-127.791v63.905h-511.223v-511.223h63.905v-127.791zM1018.197-63.469h-766.824v766.824h766.824v-766.824zM379.164 64.36h511.204v511.204h-511.204v-511.204z" />
<glyph unicode="&#xe915;" glyph-name="allbackup" d="M238.080-60.53l83.513 218.7h-320.588v798.379h1022.009v-798.379h-355.044l83.494-218.7h-513.384zM92.065 247.144h839.889v620.411h-839.889v-620.411zM358.4 552.296c0-48.846-39.597-88.443-88.443-88.443s-88.443 39.597-88.443 88.443c0 48.846 39.597 88.443 88.443 88.443s88.443-39.597 88.443-88.443zM600.443 552.296c0-48.846-39.597-88.443-88.443-88.443s-88.443 39.597-88.443 88.443c0 48.846 39.597 88.443 88.443 88.443s88.443-39.597 88.443-88.443zM842.505 552.296c0-48.856-39.606-88.462-88.462-88.462s-88.462 39.606-88.462 88.462c0 48.856 39.606 88.462 88.462 88.462s88.462-39.606 88.462-88.462z" />
<glyph unicode="&#xe916;" glyph-name="textbox" d="M1024 72.533v-68.267c0-37.698-30.568-68.286-68.286-68.286h-68.267c-37.679 0-68.267 30.568-68.267 68.286h-614.381c0-37.698-30.568-68.286-68.267-68.286h-68.267c-37.698 0-68.267 30.568-68.267 68.286v68.267c0 37.679 30.568 68.267 68.267 68.267v614.4c-37.698 0-68.267 30.568-68.267 68.267v68.267c0 37.698 30.568 68.267 68.267 68.267h68.267c37.698 0 68.267-30.568 68.267-68.267h614.4c0 37.698 30.568 68.267 68.267 68.267h68.267c37.698 0 68.286-30.568 68.286-68.267v-68.267c0-37.698-30.568-68.267-68.286-68.267v-614.4c37.698 0 68.267-30.587 68.267-68.267zM887.467 755.2c-37.679 0-68.267 30.568-68.267 68.267h-614.4c0-37.698-30.568-68.267-68.267-68.267v-614.4c37.698 0 68.267-30.568 68.267-68.267h614.4c0 37.679 30.568 68.267 68.267 68.267v614.4zM750.933 618.667h-136.533v-341.333h68.267v-68.267h-341.333v68.267h68.267v341.333h-136.533v-68.267h-68.267v136.533h614.4v-136.533h-68.267v68.267z" />
<glyph unicode="&#xe917;" glyph-name="topofontcolor" d="M0 121.363v-153.581h665.638l153.6 153.581zM768-32.18h256v256zM267.416 392.894h322.579l104.846-245.874h128.853l-332.591 781.179h-121.116l-337.92-781.179h131.546l103.803 245.874zM429.777 765.459l118.556-263.832h-238.194l119.637 263.832z" />
<glyph unicode="&#xe918;" glyph-name="link" d="M972.686 255.602c-59.847 59.866-153.903 68.418-222.322 25.676l-401.901 401.882c42.743 68.399 34.209 162.456-25.657 222.322-76.971 76.971-188.132 76.971-265.083 0s-76.971-188.113 0-265.083c59.847-59.866 153.922-68.399 222.322-25.657l401.92-401.901c-42.761-68.399-34.228-162.475 25.657-222.341 76.971-76.971 188.113-76.971 265.083 0 68.38 76.99 68.38 188.151-0.019 265.102v0zM254.388 708.817c-34.209-34.209-94.056-34.209-128.265 0s-34.209 94.056 0 128.265 94.056 34.209 128.265 0 34.209-85.504 0-128.265v0zM904.287 50.366c-34.209-34.19-94.056-34.19-128.265 0-34.209 34.228-34.209 94.075 0 128.284s94.056 34.209 128.265 0 34.19-85.523 0-128.284v0z" />
<glyph unicode="&#xe919;" glyph-name="bordercolor" d="M963.072 448.474c-21.599 0-39.159-17.541-39.159-39.14v-291.631c0-51.996-42.287-94.341-94.341-94.341h-635.24c-52.015 0-94.341 42.287-94.341 94.341v586.942c0 51.996 42.306 94.322 94.341 94.322h257.422c21.599 0 39.14 17.56 39.14 39.159s-17.56 39.121-39.14 39.121h-257.422c-95.137 0-172.525-77.388-172.525-172.544v-587.036c0-95.156 77.388-172.563 172.525-172.563h635.24c95.080 0 172.525 77.445 172.639 172.658v291.499c0 21.675-17.522 39.215-39.14 39.215zM216.728 475.534l369.664-365.454 369.38 365.701-295.784 292.371 110.933 109.947-73.747 72.78-147.456-146.204-332.99-329.14zM754.024 530.754h-335.512l167.841 164.788 167.671-164.788zM204.686 363.596c-13.369-23.931-80.156-145.446-80.156-192.228 0-56.585 46.042-102.665 102.665-102.665 56.585 0 102.628 46.080 102.628 102.665 0 46.782-66.769 168.296-80.137 192.228l-22.509 40.145-22.49-40.145z" />
<glyph unicode="&#xe91a;" glyph-name="fillcolor" d="M911.057 401.503l-559.332 559.445-51.409-51.39 103.803-103.822-404.12-404.404 455.566-455.358 455.49 455.528zM455.433 754.423l286.682-286.587h-573.231l286.549 286.587zM924.388 230.893l-22.509 40.145-22.528-40.145c-13.369-23.931-80.156-145.446-80.156-192.228 0-56.585 46.042-102.665 102.665-102.665 56.585 0 102.628 46.080 102.628 102.665 0.038 46.782-66.731 168.296-80.1 192.228z" />
<glyph unicode="&#xe91b;" glyph-name="authority" d="M526.165 973.54c-282.776 0-512-229.224-512-512s229.224-512 512-512c282.757 0 512 229.224 512 512 0 282.757-229.243 512-512 512zM469.22 220.027h-286.398v483.973h138.866v-346.833h147.532v-137.14zM858.567 239.313l-24.557-7.396c-28.35-8.514-59.411-12.838-92.293-12.838-80.403 0-142.62 23.381-184.965 69.518-41.472 45.208-62.502 100.883-62.502 165.49 0 67.356 23.154 126.293 68.836 175.142 46.327 49.588 108.677 74.733 185.287 74.733 21.485 0 44.203-3.205 67.565-9.5l33.413-9.026-21.978-124.776-41.093 12.876c-19.513 6.106-36.674 9.216-50.972 9.216-37.547 0-64.531-10.449-82.451-31.972-19.646-23.571-29.203-52.129-29.203-87.287 0-35.328 11.093-64.664 33.868-89.676 21.864-24.007 52.281-35.669 92.956-35.669 16.175 0 38.514 3.944 66.427 11.7l52.565 14.583-10.904-125.118z" />
<glyph unicode="&#xe91c;" glyph-name="skin" d="M501.457 632.737c-96.768 0-177.683 67.925-197.632 158.701-3.091 14.071-2.067 22.092-13.047 34.285-8.382 9.368-23.362 9.368-23.362 9.368h-34.152c0 0-17.522 0.228-25.79-3.3-14.962-6.334-27.022-19.247-27.022-19.247l-177.721-177.721c0 0-11.586-12.914-13.028-25.278-1.877-15.967 6.58-22.793 6.58-22.793l104.22-104.183c0 0 6.485-7.661 16.687-8.988 11.074-1.403 19.172 4.684 19.172 4.684l38.153 26.548c0 0 12.572 10.638 21.371 6.865 8.249-3.489 7.092-18.906 7.092-18.906v-413.791c0 0-1.289-18.489 9.349-29.108 10.942-10.98 26.131-10.657 26.131-10.657h525.957c0 0 15.227-0.341 26.112 10.638 10.657 10.638 9.349 29.108 9.349 29.108v413.791c0 0-1.138 15.417 7.111 18.906 8.78 3.755 21.352-6.865 21.352-6.865l38.191-26.567c0 0 8.059-6.106 19.134-4.684 10.202 1.308 16.706 8.969 16.706 8.969l104.201 104.183c0 0 8.457 6.846 6.618 22.793-1.441 12.383-13.047 25.278-13.047 25.278l-177.721 177.74c0 0-12.060 12.876-27.003 19.247-8.287 3.546-25.79 3.319-25.79 3.319h-34.133c0 0-14.981 0-23.381-9.387-10.961-12.174-9.937-20.215-13.047-34.285-19.949-90.738-100.864-158.663-197.613-158.663v0z" />
<glyph unicode="&#xe91d;" glyph-name="movein" d="M595.058 739.271h-152.5v-223.327h-220.956v-152.481h220.956v-216.064h152.5v216.064h218.396v152.481h-218.396zM667.401 960h-296.865l140.44-164.523zM0 292.143l164.523 140.459-164.523 156.425zM1023.981 583.016l-164.523-140.459 164.542-156.425zM369.076-66.958l296.884 0.019-140.459 164.523z" />
<glyph unicode="&#xe91e;" glyph-name="nobackup" d="M1022.995 956.53h-103.936l-2.579 3.356-4.343-3.356h-911.151v-798.398h320.588l-83.513-218.681h513.384l-83.494 218.681h355.063v798.398zM796.52 867.537l-704.474-542.322v542.322h704.474zM186.33 247.125l745.624 574.028v-574.028h-745.624z" />
<glyph unicode="&#xe91f;" glyph-name="knowledge" d="M999.652 746.61h-15.303c-11.473 0-20.916 11.624-20.916 25.657v50.328c0.076 14.601-8.116 26.738-19.74 29.355-158.151 37.281-301.89 36.561-411.364-58.349-19.532-16.934-21.352-16.744-40.6 0-109.568 94.815-253.364 95.611-411.496 58.349-11.567-2.617-19.759-14.753-19.759-29.355v-50.328c0-14.033-9.292-25.657-20.859-25.657h-15.284c-13.464 0-24.367-13.426-24.367-29.886l0.152-601.809c0-16.574 10.904-29.905 24.348-29.905h413.032c7.68 0 13.9-7.737 13.9-16.991 0-10.164 5.423-18.47 13.976-18.47h93.108c7.756 0 13.957 7.756 13.957 17.029 0 10.164 5.329 18.432 13.9 18.432h413.032c13.312 0 24.273 13.331 24.273 29.905l0.36 601.79c0 16.479-10.885 29.905-24.348 29.905v0zM477.772 143.455c-97.432 74.904-224.389 83.551-359.708 55.713-13.824-2.769-26.264 10.183-26.264 27.496l-0.228 568.092c0 14.772 8.476 27.117 20.252 29.715 141.16 29.241 271.151 17.73 365.796-70.334 12.155-11.245 18.66-27.458 18.66-46.099l0.152-551.917c0-11.757-10.392-18.963-18.66-12.667v0zM932.276 226.664c0-17.218-12.421-30.284-26.34-27.496-135.396 27.857-262.277 19.209-359.727-55.713-8.192-6.296-18.641 0.91-18.641 12.781l0.228 551.917c0 18.641 6.428 34.835 18.565 46.099 94.644 88.064 224.635 99.499 365.796 70.239 11.833-2.522 20.328-14.848 20.328-29.62l-0.209-568.206z" />
<glyph unicode="&#xe920;" glyph-name="hand" d="M910.127 755.181c-20.708 0-40.164-5.006-56.889-13.767v64.967c0 56.491-51.029 102.4-113.816 102.4-23.419 0-45.17-6.391-63.317-17.37-15.588 39.898-57.818 68.57-107.368 68.57-49.569 0-91.838-28.672-107.387-68.57-18.072 10.961-39.879 17.37-63.317 17.37-62.767 0-113.797-45.928-113.797-102.4v-377.496l-76.61 119.448c-14.848 24.311-39.102 41.624-68.229 48.792-28.388 6.959-57.932 3.281-83.191-10.335-51.617-27.857-71.301-90.852-43.823-140.402 1.707-3.11 38.002-70.030 151.343-273.92 53.381-96.009 111.919-164.693 174.061-204.004 48.754-30.872 82.451-32.465 88.709-32.465h284.501c48.45 0 93.449 14.184 133.841 42.098 37.964 26.283 70.903 64.265 97.868 112.849 53.153 95.649 81.256 227.954 81.256 382.692v179.2c0 56.491-51.029 102.4-113.797 102.4l-0.038-0.057zM967.035 473.581c0-146.792-25.998-271.17-75.226-359.746-32.085-57.761-89.562-126.673-180.812-126.673h-283.932c-2.219 0.152-26.188 2.56-62.293 26.871-36.030 24.254-91.345 75.378-150.13 181.267-115.333 207.569-150.793 272.953-151.135 273.579-0.057 0.114-0.057 0.152-0.114 0.209-14.279 25.752-4.153 59.506 22.13 73.69 11.833 6.409 25.657 8.078 38.969 4.855 14.165-3.489 26.074-12.079 33.394-24.159 0.114-0.152 0.228-0.36 0.341-0.493l88.823-138.524c18.148-29.848 38.571-42.382 60.719-37.319 22.187 5.063 33.413 25.031 33.413 59.24v400.005c0 28.217 25.543 51.2 56.889 51.2s56.889-22.983 56.889-51.2v-332.819c0-14.127 12.762-25.6 28.463-25.6s28.444 11.454 28.444 25.6v384.038c0 28.217 25.562 51.2 56.908 51.2s56.908-22.983 56.908-51.2v-384.019c0-14.127 12.743-25.6 28.425-25.6 15.72 0 28.463 11.454 28.463 25.6v332.8c0 28.217 25.562 51.2 56.908 51.2s56.889-22.983 56.889-51.2v-384.019c0-14.127 12.743-25.6 28.463-25.6 15.701 0 28.444 11.454 28.444 25.6v230.419c0 28.217 25.543 51.2 56.908 51.2 31.346 0 56.908-22.983 56.908-51.2v-179.219h-0.057z" />
<glyph unicode="&#xe921;" glyph-name="expExcel" d="M589.502 816.773v143.227l-589.502-150.13v-723.759l589.502-150.13v143.208h434.498v737.583h-434.498zM589.502 279.116h110.004v-89.638h-110.004v89.638zM589.502 423.86h110.004v-89.6h-110.004v89.6zM589.502 568.604h110.004v-89.619h-110.004v89.619zM589.502 713.368h110.004v-89.619h-110.004v89.619zM768.531 279.116h137.538v-89.638h-137.538v89.638zM768.531 423.86h137.538v-89.6h-137.538v89.6zM768.531 568.604h137.538v-89.619h-137.538v89.619zM768.531 713.368h137.538v-89.619h-137.538v89.619zM226.797 598.699l71.623-105.832 74.733 112.469 61.914 2.788-104.353-155.003 111.863-166.779-67.224 3.072-78.715 121.685-80.024-114.441-63.223 2.882 111.863 153.467-104.334 142.696 65.877 2.996z" />
<glyph unicode="&#xe922;" glyph-name="curousel" d="M102.817 740.58h-51.617c-27.496 0-50.783-32.635-50.783-72.932v-439.296c0-39.784 22.737-72.932 50.783-72.932h51.617v585.159zM922.017 740.58h51.617c28.103 0 50.783-33.147 50.783-72.932v-439.296c0-40.372-23.305-72.932-50.783-72.932h-51.617v585.159zM819.617 960h-614.4c-28.255 0-51.2-32.768-51.2-73.14v-877.701c0-40.448 22.926-73.14 51.2-73.14h614.4c28.312 0 51.2 32.711 51.2 73.14v877.701c0 40.372-22.888 73.14-51.2 73.14zM333.217 740.58c42.439 0 76.8-49.095 76.8-109.72 0-60.644-34.361-109.72-76.8-109.72-42.458 0-76.8 49.076-76.8 109.72 0 60.625 34.342 109.72 76.8 109.72v0zM205.217 18.015c0 0 41.927 364.297 125.554 364.297s73.633-101.736 136.439-101.736c62.862 0 88.841 313.704 173.321 313.704s179.086-576.265 179.086-576.265h-614.4z" />
<glyph unicode="&#xe923;" glyph-name="threshold" d="M591.341 639.412c-20.48 6.903-41.889 10.392-63.659 10.392-68.76 0-132.475-33.944-170.42-90.795-49.588-74.354-42.743-173.378 16.649-240.792 39.898-45.132 91.288-68.286 152.785-68.836l19.134-0.171v78.374l-13.577 4.020c-91.762 27.174-129.441 72.514-115.2 138.657 12.212 56.794 65.669 98.418 119.846 91.383 33.033-4.286 58.387-17.825 77.521-41.415 26.814-33.015 31.441-71.756 14.981-125.649l-6.751-22.13 23.021-2.276c14.298-1.422 24.254-2.238 32.806-2.238 47.426 0 49.436 32.635 51.75 70.409 5.48 88.955-51.636 171.634-138.885 201.064zM527.322 957.876l-439.637-254.199v-508.226l439.637-254.161 439.637 254.161v508.226l-439.637 254.199zM872.126 250.159l-344.804-199.339-344.823 199.339v398.829l344.823 199.358 344.823-199.377v-398.81z" />
</font>
</defs>
</svg>
